<svg id="close_7_" data-name="close (7)" xmlns="http://www.w3.org/2000/svg" width="38.021" height="38.021" viewBox="0 0 38.021 38.021">
  <g id="Group_196" data-name="Group 196">
    <g id="Group_195" data-name="Group 195">
      <path id="Path_389" data-name="Path 389" d="M19.011,0A19.011,19.011,0,1,0,38.021,19.011,19.032,19.032,0,0,0,19.011,0Zm0,36.437A17.426,17.426,0,1,1,36.437,19.011,17.446,17.446,0,0,1,19.011,36.437Z" fill="#fff"/>
      <path id="Path_390" data-name="Path 390" d="M164.944,149.565a.792.792,0,0,0-1.12,0l-6.569,6.569-6.569-6.569a.792.792,0,0,0-1.12,1.12l6.569,6.569-6.569,6.569a.792.792,0,1,0,1.12,1.12l6.569-6.569,6.569,6.569a.792.792,0,1,0,1.12-1.12l-6.569-6.569,6.569-6.569A.792.792,0,0,0,164.944,149.565Z" transform="translate(-138.244 -138.243)" fill="#fff"/>
    </g>
  </g>
</svg>
