<svg xmlns="http://www.w3.org/2000/svg" width="44.266" height="44.266" viewBox="0 0 44.266 44.266"><defs><style>.a{fill:#fff;}</style></defs><path class="a" d="M211.466,155.3v2.012h-2.012v3.018h2.012v9.054h4.024v-9.054h2.676l.342-3.018H215.49v-1.761c0-.815.08-1.247,1.338-1.247h1.68v-3.028h-2.7C212.593,151.272,211.466,152.781,211.466,155.3Z" transform="translate(-191.345 -138.193)"/><path class="a" d="M22.133,0A22.133,22.133,0,1,0,44.266,22.133,22.133,22.133,0,0,0,22.133,0Zm0,42.254A20.121,20.121,0,1,1,42.254,22.133,20.121,20.121,0,0,1,22.133,42.254Z"/></svg>