<svg xmlns="http://www.w3.org/2000/svg" width="44.266" height="44.266" viewBox="0 0 44.266 44.266"><defs><style>.a{fill:#fff;}</style></defs><path class="a" d="M22.133,0A22.133,22.133,0,1,0,44.266,22.133,22.133,22.133,0,0,0,22.133,0Zm0,42.254A20.121,20.121,0,1,1,42.254,22.133,20.121,20.121,0,0,1,22.133,42.254Z"/><path class="a" d="M155.734,139.636H143.661a4.024,4.024,0,0,0-4.024,4.024v12.072a4.024,4.024,0,0,0,4.024,4.024h12.072a4.024,4.024,0,0,0,4.024-4.024V143.66A4.024,4.024,0,0,0,155.734,139.636Zm-2.012,3.018h3.018v3.018h-3.018Zm-4.024,3.018a4.024,4.024,0,1,1-4.024,4.024A4.024,4.024,0,0,1,149.7,145.672Zm8.048,10.06a2.012,2.012,0,0,1-2.012,2.012H143.661a2.012,2.012,0,0,1-2.012-2.012V148.69h2.113a6.036,6.036,0,1,0,11.972,1.006,5.962,5.962,0,0,0-.1-1.006h2.113v7.042Z" transform="translate(-127.564 -127.564)"/></svg>