<svg xmlns="http://www.w3.org/2000/svg" width="1920" height="271.654" viewBox="0 0 1920 271.654"><defs><style>.a{opacity:0.1;}.b{fill:#fff;}</style></defs><g class="a"><g transform="translate(0 0)"><path class="b" d="M61.188,151.57a1.17,1.17,0,0,1,.585,0H59.726c-4.606,0-7.31-1.974-7.31-5.775V133.66c51.684,8.919,84-17.618,84-56.875,0-41.011-29.242-59.214-62.942-59.214H17.91V237.54H0V.83H81.438c44.74,0,73.1,34.066,73.1,75.955,0,26.829-12.428,60.311-50.515,71.861,20.469,16.448,26.829,41.889,28.291,61.188,1.1,17.033,27.414,39.842,53.073,39.842v16.741H174.426c-22.516,0-56.29-23.393-61.188-56.582a181.726,181.726,0,0,0-2.632-18.2,54.609,54.609,0,0,0-8.626-19.007,48.4,48.4,0,0,0-38.672-20.542Z" transform="translate(0 5.238)"/><path class="b" d="M133.329,25.014l-90.356,212H23.6L124.118.67H142.54L244.228,237.015H223.9l-42.035-96.57Z" transform="translate(148.925 4.228)"/><path class="b" d="M243.244,237.168H230.6l-34.651-80.414L161,237.168H148.575L48.13.75H68.6l86.043,204.691L186.735,132.7,130.153.75h20.469l46.2,107.1L241.855.75h20.761L206.034,132.337l30.923,73.1L324.1.75h20.542Z" transform="translate(303.719 4.733)"/><path class="b" d="M90.29,175.005H109c3.509,35.236,28,53.439,51.977,53.439a53.073,53.073,0,0,0,52.854-51.173,41.816,41.816,0,0,0-16.741-36.917,71.061,71.061,0,0,0-17.618-8.919c-6.945-2.339-14.182-4.386-21.346-6.433-31.508-8.041-62.65-17.252-62.65-61.48C95.48,23.753,127.207.36,162.151.36c25.952,0,57.46,14.986,63.82,61.773H208.645C200.531,26.6,183.5,18.27,161.566,18.27c-31.142,0-47.079,19.007-47.079,44.74s13.3,34.871,34.066,42.108c6.945,2.339,14.182,4.313,21.419,6.36,29.242,7.822,61.773,18.2,61.773,64.7a68.425,68.425,0,0,1-70.18,69.01C130.936,245.185,94.6,224.35,90.29,175.005Z" transform="translate(569.765 2.272)"/><path class="b" d="M207.7,156.8v80.414H188.989V156.8L111.28.87h19.884l67.621,132.537L265.749.87h20.542Z" transform="translate(702.22 5.49)"/><path class="b" d="M310.165,237.248,158.547,28.536V237.248H139.54V.83h21.346L310.457,206.764V.83h18.2V237.248Z" transform="translate(880.551 5.238)"/><path class="b" d="M171.68,237.168V.75h106V17.2h-88.09V220.135h88.09v17.033Z" transform="translate(1083.367 4.733)"/><path class="b" d="M173.11,34.446V17.34h86.409l3.143,17.106Z" transform="translate(1092.391 109.422)"/><path class="b" d="M252.419,151.57a1.17,1.17,0,0,1,.585,0h-2.047c-4.605,0-7.31-1.974-7.31-5.775V133.66c51.685,8.919,84.069-17.618,84.069-56.875,0-41.011-28.876-59.214-62.942-59.214H209.288V237.54H191.45V.83h81.438c44.666,0,72.665,34.066,72.665,75.955,0,26.829-12.355,60.311-50.442,71.861,20.469,16.448,26.829,41.889,28.218,61.188,1.17,17.033,27.487,39.842,53.146,39.842v16.741H365.511c-22.516,0-56.29-23.393-61.188-56.582a181.7,181.7,0,0,0-2.632-18.2,56,56,0,0,0-8.626-19.007,48.468,48.468,0,0,0-39.111-20.542Z" transform="translate(1208.124 5.238)"/><path class="b" d="M327.855,244.825a186.347,186.347,0,0,1-30.631-7.31c-59.726-19.3-80.414-73.616-80.414-115.5S237.352,26.244,297.224,6.872A204.7,204.7,0,0,1,327.855,0h17.618V16.741c-73.908,1.17-110.606,54.9-110.606,105.635,0,48.541,31.8,101.1,101.4,105.416V138.9h17.545V244.825Z" transform="translate(1368.155 0)"/><path class="b" d="M335.134,156.8v80.414H316.346V156.8L238.71.87h19.665l67.841,132.537L393.179.87h20.469Z" transform="translate(1506.353 5.49)"/></g></g></svg>