<svg xmlns="http://www.w3.org/2000/svg" xmlns:xlink="http://www.w3.org/1999/xlink" width="144.681" height="72.481" viewBox="0 0 144.681 72.481"><defs><style>.a{fill:url(#a);}.b{fill:url(#d);}.c{fill:url(#bh);}.d{fill:url(#bi);}</style><linearGradient id="a" y1="0.498" x2="1" y2="0.498" gradientUnits="objectBoundingBox"><stop offset="0" stop-color="#fff"/><stop offset="1" stop-color="#d6c64c"/></linearGradient><linearGradient id="d" y1="0.5" x2="1" y2="0.5" gradientUnits="objectBoundingBox"><stop offset="0" stop-color="#b3871f"/><stop offset="1" stop-color="#d6c64c"/></linearGradient><linearGradient id="bh" x1="0" y1="20.344" y2="20.344" xlink:href="#d"/><linearGradient id="bi" x1="0" y1="0.5" y2="0.5" xlink:href="#d"/></defs><g transform="translate(-0.021 -0.034)"><g transform="translate(0.021 0.034)"><path class="a" d="M159.2,111.119l2.125-1.579.046.041L159.3,111.23Z" transform="translate(-66.776 -45.957)"/><path class="a" d="M163.423,108.68l-.517.54-.046-.041.581-.5Z" transform="translate(-68.311 -45.597)"/><path class="a" d="M163.83,108.3l.534-.523h0l-.517.54Z" transform="translate(-68.718 -45.219)"/><line class="b" x1="0.012" y2="0.012" transform="translate(107.828 33.401)"/><path class="a" d="M164.746,107.663l.366-.163h0l-.372.157Z" transform="translate(-69.099 -45.102)"/><path class="a" d="M166.3,106.316l.151-.366h0l-.145.366Z" transform="translate(-69.753 -44.452)"/><path class="a" d="M165.517,106.83l-.157.377h0l.151-.377Z" transform="translate(-69.359 -44.821)"/><path class="a" d="M165.64,106.737l.383-.157h0Z" transform="translate(-69.477 -44.716)"/><path class="a" d="M166.56,106Z" transform="translate(-69.863 -44.473)"/><path class="a" d="M167.47,105Z" transform="translate(-70.244 -44.054)"/><path class="a" d="M167.48,105Z" transform="translate(-70.248 -44.054)"/><path class="a" d="M168.39,104.12Z" transform="translate(-70.63 -43.684)"/><path class="a" d="M168.39,104.113l.017-.023-.017.017Z" transform="translate(-70.63 -43.672)"/><path class="a" d="M72.542,92.092a.76.76,0,0,1-.122-.116V91.9l.1.2Z" transform="translate(-30.383 -38.56)"/><path class="a" d="M74.45,95v.046C74.479,95.134,74.45,95.046,74.45,95Z" transform="translate(-31.234 -39.86)"/><path class="a" d="M77.19,98.92Z" transform="translate(-32.383 -41.504)"/><path class="a" d="M77.18,98.93Z" transform="translate(-32.379 -41.508)"/><path class="a" d="M147.392,78.509l.1-.1-.11.087Z" transform="translate(-61.819 -32.902)"/><path class="a" d="M73.689,94.05l.012.058L73.66,94.1Z" transform="translate(-30.903 -39.461)"/><path class="a" d="M72.61,92.242l.11.1-.1-.11Z" transform="translate(-30.463 -38.698)"/><path class="a" d="M71.888,91.082l-.035.058-.023-.07Z" transform="translate(-30.135 -38.212)"/><path class="a" d="M76.249,28.41l-.029.029.029-.023Z" transform="translate(-31.976 -11.934)"/><path class="a" d="M83.57,105.946l.029.017-.029-.023Z" transform="translate(-35.059 -44.448)"/><path class="a" d="M83.553,105.919l-.023-.029.023.035Z" transform="translate(-35.042 -44.427)"/><path class="a" d="M82.66,105.03l.023.023-.023-.023Z" transform="translate(-34.677 -44.066)"/><path class="a" d="M164.73,104.71v.07l.035-.058Z" transform="translate(-69.095 -43.932)"/><path class="a" d="M88.13,109.59l.023.023-.023-.023Z" transform="translate(-36.971 -45.978)"/><path class="a" d="M88.109,109.569l-.029-.029.029.029Z" transform="translate(-36.95 -45.957)"/><path class="a" d="M74.429,94.983,74.4,94.96l.029.023Z" transform="translate(-31.213 -39.843)"/><path class="a" d="M141,83.12l-.023.041.035-.029Z" transform="translate(-59.135 -34.878)"/><path class="a" d="M82.639,105.009l-.029-.029.029.029Z" transform="translate(-34.656 -44.045)"/><path class="a" d="M81.75,104.12l.017.017-.017-.017Z" transform="translate(-34.296 -43.684)"/><path class="a" d="M81.729,104.1l-.029-.023.029.023Z" transform="translate(-34.275 -43.668)"/><path class="a" d="M80.83,103.21l.023.017-.017-.017Z" transform="translate(-33.91 -43.303)"/><path class="a" d="M80.819,103.189l-.029-.029.023.029Z" transform="translate(-33.893 -43.282)"/><path class="a" d="M79.92,102.3l.023.012-.023-.017Z" transform="translate(-33.528 -42.917)"/><path class="a" d="M79.9,102.269l-.029-.029.029.035Z" transform="translate(-33.507 -42.896)"/><path class="a" d="M75.06,101.7Z" transform="translate(-31.49 -42.67)"/><path class="a" d="M76.27,97.736l.023.017-.017-.023Z" transform="translate(-31.997 -41.005)"/><path class="a" d="M76.259,97.713l-.029-.023.023.029Z" transform="translate(-31.981 -40.988)"/><path class="a" d="M165.6,96.556,167.069,95h0l-1.37,1.62Z" transform="translate(-69.46 -39.86)"/><path class="a" d="M175.81,87.69l-1.01,1.643-.07-.075,1.092-1.55Z" transform="translate(-73.289 -36.794)"/><path class="a" d="M164.013,98.92c-.366.395-.732.8-1.1,1.161h0l1.016-1.272Z" transform="translate(-68.332 -41.458)"/><path class="a" d="M165.3,97.755l-.546.7-.075-.07.534-.7Z" transform="translate(-69.074 -40.984)"/><path class="a" d="M176.6,87.326l.209-.546.163.087-.383.441Z" transform="translate(-74.069 -36.413)"/><path class="a" d="M180.242,79.671V79.09l.186.041-.2.581Z" transform="translate(-75.595 -33.188)"/><path class="a" d="M180.985,77v.668l-.215-.046.226-.581Z" transform="translate(-75.822 -32.311)"/><path class="a" d="M180.125,80.08V80.5l-.145-.052.174-.36Z" transform="translate(-75.491 -33.603)"/><path class="a" d="M179.208,82.23l-.046.435-.122-.035.186-.389Z" transform="translate(-75.096 -34.504)"/><path class="a" d="M178.641,83.864v.075l-.081-.087.058-.052Z" transform="translate(-74.895 -35.163)"/><path class="a" d="M168.261,94.08l-.151.546h0Z" transform="translate(-70.513 -39.474)"/><path class="a" d="M179.331,82.028V81.72l.1.035-.145.261Z" transform="translate(-75.201 -34.291)"/><path class="a" d="M160.18,104.009l.046-.139.081.064-.122.081Z" transform="translate(-67.187 -43.58)"/><path class="a" d="M178.2,84.934l.035-.064.029.07Z" transform="translate(-74.744 -35.612)"/><path class="a" d="M177.665,85.82l.017.058-.052-.006Z" transform="translate(-74.505 -36.01)"/><path class="a" d="M168.39,94.1Z" transform="translate(-70.63 -39.482)"/><path class="a" d="M162.91,101.06Z" transform="translate(-68.332 -42.401)"/><path class="a" d="M185.748,57.531a.082.082,0,0,1,0-.041v.052Z" transform="translate(-77.908 -24.129)"/><path class="a" d="M181.16,77v-.012Z" transform="translate(-75.985 -32.282)"/><path class="c" d="M138.851,115a.1.1,0,0,1-.041,0h.052Z" transform="translate(-58.225 -48.247)"/><path class="d" d="M144.376,22.177c-.186-.581-.819-.7-1.115-.151a4.988,4.988,0,0,0-.441,1.655,35.812,35.812,0,0,1-.43,3.641,12.066,12.066,0,0,1-5.069,7.246,22.194,22.194,0,0,1-12.141,3.548c-5.516.168-11.032-.139-16.571-.244-1.266,0-1.266,0-1.335-1.289,0-.035-.046-.064-.081-.1L107,37.639a1.742,1.742,0,0,1-.192-.993,34.467,34.467,0,0,0-1.277-10.5c-.395-1.446-.912-2.857-1.376-4.285a.633.633,0,0,1,.139.168,26.622,26.622,0,0,1,2.688,8.082,31.311,31.311,0,0,0,.865,3.3,6.536,6.536,0,0,0-.058-1.161c-.482-2.183-.946-4.361-1.527-6.491a27.922,27.922,0,0,0-4.784-9.667,40.214,40.214,0,0,0-8.28-8.03,33.386,33.386,0,0,0-8.942-4.871c-1.527-.523-3.066-1-4.6-1.5a6.567,6.567,0,0,1,1.161.081A37.636,37.636,0,0,1,92.282,6.453a34.309,34.309,0,0,1,10.567,10.01,40,40,0,0,1,4.964,10.027c.25.581.406,1.37.674,1.945a25.386,25.386,0,0,0-1.126-4.779A35.767,35.767,0,0,0,94.245,6.941c-.987-.7-1.992-1.382-2.984-2.073.261.1.528.186.778.3.581.25,1.1.517,1.649.778l.046-.058a4.866,4.866,0,0,0-.581-.5A38.014,38.014,0,0,0,78.591.333,37.555,37.555,0,0,0,55.505,4.822,35.709,35.709,0,0,0,44.218,14.8c-1.266,1.742-2.357,3.617-3.484,5.452a28.364,28.364,0,0,0-3.9,9.29c-.261,1.26-.494,2.52-.691,3.792-.087.534-.261.79-.848.662a17.558,17.558,0,0,0-1.922-.3c-2.276-.215-4.552-.459-6.84-.581a37.346,37.346,0,0,0-15.509,1.933,16.148,16.148,0,0,0-9.917,8.93A11.613,11.613,0,0,0,.043,49.617,4.192,4.192,0,0,0,.88,51.643c.372.494.958.2,1.01-.435a10.765,10.765,0,0,0,0-1.5,12.086,12.086,0,0,1,3.995-9.493c3.484-3.344,7.838-4.691,12.449-5.063a109.53,109.53,0,0,1,11.8-.029c1.684.046,3.356.488,5.04.7.639.075.662.4.7.941a60.577,60.577,0,0,0,.633,7.269,40.481,40.481,0,0,0,1.992,6.631,27.1,27.1,0,0,0,5.1,8.4h0c.772.906,1.481,1.875,2.323,2.7a47.65,47.65,0,0,0,3.71,3.217,32.585,32.585,0,0,0,11.932,6.137,42.345,42.345,0,0,0,5.777,1.074,41.673,41.673,0,0,0,6.306.308,31.975,31.975,0,0,0,12.327-3.141c1.161-.581,2.276-1.277,3.408-1.922l-.134-.145a4.4,4.4,0,0,0-.581.2A35.918,35.918,0,0,1,80.8,70.671a35.006,35.006,0,0,1-32.829-7.844,33.473,33.473,0,0,1-10.6-18.911c-.418-2.323-.476-4.645-.685-6.968a3.2,3.2,0,0,1,.1-.766h.226a2.207,2.207,0,0,1,.128.453c.081,1.312.157,2.63.238,3.942a29.113,29.113,0,0,0,2.381,9.371A34.315,34.315,0,0,0,50.523,64.011a33.3,33.3,0,0,0,15.6,6.8,32.9,32.9,0,0,0,16.4-1.481A39.076,39.076,0,0,0,96.12,61.2a34.559,34.559,0,0,0,9.389-14.736c.581-1.823.865-3.739,1.283-5.615a13.355,13.355,0,0,0-.453,1.388,34.286,34.286,0,0,1-5.388,12.536,27.289,27.289,0,0,1-5.226,5.98c1.161-1.486,2.415-2.932,3.524-4.465.848-1.161,1.527-2.479,2.282-3.722l-.07-.075c-.3.389-.639.749-.9,1.161A37.392,37.392,0,0,1,86.627,66.676a24.967,24.967,0,0,1-9.935,2.967c-2.16.186-4.331.279-6.5.279a19.069,19.069,0,0,1-3.048-.465c2.735-.052,5.487.093,8.2-.209A29.159,29.159,0,0,0,89.28,63.924a43.544,43.544,0,0,0,3.437-2.955,2.13,2.13,0,0,0,.319-.505h0c-.842.615-1.69,1.219-2.514,1.852A30.192,30.192,0,0,1,80.373,67.46a11.989,11.989,0,0,1-2.735.523c.749-.226,1.5-.43,2.241-.685a3.483,3.483,0,0,0,.749-.459c-1.057.25-2.119.476-3.17.749a27.046,27.046,0,0,1-6.689.848A31.076,31.076,0,0,1,46.662,57.752a31.6,31.6,0,0,1-6.747-11.868c-.912-2.851-.848-5.806-1.045-8.709-.035-.546.168-.685.737-.621,3.06.331,6.12.737,9.2.883a11.813,11.813,0,0,0,9.546-3.641,16.835,16.835,0,0,0,1.678-2.648,2.729,2.729,0,0,1,.668-.517c.064.255.226.54.174.766-.528,2.218-1.121,4.424-1.649,6.637A28.683,28.683,0,0,0,58.06,46.54a6.352,6.352,0,0,0,1.347,3.832c1.44,1.742,3.373,1.742,5.324,1.295,3.31-.7,5.992-2.648,8.431-4.819,2.793-2.473,5.348-5.226,8.007-7.833.186-.18.354-.377.552-.581,1.132,1.661,2.717,1.312,4.239,1.068,1.33-.209,2.636-.534,3.96-.755.314-.052.859,0,.946.215a1.649,1.649,0,0,1-.11,1.063c-.5,1.5-1.951,1.788-3.124,2.456C85.553,43.642,83.5,44.9,81.488,46.2a4.779,4.779,0,0,0-1.353,1.562,1.446,1.446,0,0,0,1.1,2.189,4.654,4.654,0,0,0,3.809-1.481c1.771-1.527,3.373-3.252,5.127-4.8a9.662,9.662,0,0,1,2.624-1.649A37.085,37.085,0,0,1,98.39,40a24.633,24.633,0,0,1,4.645-.372c.993-.052,1.992,0,3.153,0-.3,1.492-.581,2.845-.854,4.2-.058.29-.093.581-.134.877.279-.784.581-1.556.807-2.352.157-.581.18-1.208.285-1.806a4.742,4.742,0,0,1,.25-.714h.238v1.051a2.665,2.665,0,0,1,.25-.633c.163-.215.4-.523.581-.517,1.678,0,3.356.07,5.022.192a66.991,66.991,0,0,0,16.838-.546,22.993,22.993,0,0,0,7.949-2.787A14.273,14.273,0,0,0,144.7,23.9a5.73,5.73,0,0,0-.325-1.719Zm-54.457-18,.215.122-.25-.058Zm-.494-.314.052.052-.07.046h-.075a.581.581,0,0,1,.093-.1Zm-.627-.2h.07v.052a.308.308,0,0,1-.07,0s-.029-.052-.023-.052Zm-.581-.325.064.046h-.075Zm-.581-.192v.064l-.058-.046Zm-.679-.325v.035h-.052ZM76.843,68.209v.157l-.482-.064Zm-1.446.244v.1h-.418v-.075Zm-9.546.8,1.161.2H65.852Zm-1.01-.261.151.041a.836.836,0,0,1-.186.075c-.035,0-.075-.046-.11-.07Zm-1.161-.116h-.11v-.046ZM43.26,55.22Zm3.153,4.186h0v-.029ZM43.26,55.226Zm-.453-.581V54.7h-.041Zm-.737-1.272.081.168a1.309,1.309,0,0,1-.093-.093C42.029,53.414,42.063,53.432,42.069,53.374Zm-.3-.47-.035.058v-.07ZM40.49,50.215v.07h-.058ZM40,49.193l.035.1-.093-.168a.291.291,0,0,1,.058.064Zm41.933-.929c.859-.691,1.707-1.394,2.59-2.055a6.679,6.679,0,0,1,1.028-.581,7.817,7.817,0,0,1-3.617,2.636ZM104.075,21.5a1.373,1.373,0,0,0,.046.261l-.139-.232Zm-1.08-.778-.029.041v-.046ZM78.556,1.437l.993.232H78.533Zm-1.783-.2h.72V1.3h-.732ZM39.4,23.588h.058a.383.383,0,0,1,0,.081H39.4a.331.331,0,0,1-.006-.081Zm-.255.674-.122.331.046-.348Zm-2.113,9.824a22.591,22.591,0,0,1,1.556-8.28Zm.993,8.831v-.151h.052a.168.168,0,0,1,0,.075A.731.731,0,0,0,38.022,42.917Zm.319,1.161v.006Zm0-9.871a.377.377,0,0,1,0-.081.809.809,0,0,1,.035-.075c0,.029,0,.058,0,.081a.372.372,0,0,1-.046.093ZM38.6,45.053h-.064l.064-.087Zm1.028,3.205v.07h-.058Zm-.2-.72v.075h-.058Zm-.3-.732-.035.07v-.07Zm-.215-.865-.041.075-.035-.075Zm-.134-20.757c.064-.163.128-.325.2-.488l-.058.528Zm20.769,2.81c-.627-.383.075-1.6.075-1.6.29-.772.348-.412.348-.412a15.55,15.55,0,0,1-.4,2.015Zm45.724,9.76c-1.852,0-3.71,0-5.557.128a17.8,17.8,0,0,0-5.806,1.666c-.418.174-.848.331-1.347.523.749-2.224-.633-3.112-2.578-3.1a24.892,24.892,0,0,0-3.733.523c-.7.11-1.382.3-2.079.348-.836.07-1.161-.348-.83-1.161a4.935,4.935,0,0,1,1.045-1.6,21.652,21.652,0,0,1,2.323-1.835,1.26,1.26,0,0,1,1.614,0,1.161,1.161,0,0,0,1.1-.134,1.243,1.243,0,0,0-.139-1.161c-.581-.8-2.1-.894-3.257-.348a10.381,10.381,0,0,0-3.658,3.2A73.694,73.694,0,0,1,72.32,45.332a22.6,22.6,0,0,1-6.863,4.331c-1.492.523-3.037.836-4.436-.279a4.221,4.221,0,0,1-1.266-3.7,38.444,38.444,0,0,1,.865-5.9c.581-2.624,1.277-5.226,1.922-7.833.372-1.5.122-2.09-1.2-3.072a.807.807,0,0,1-.2-.644c.134-.865.366-1.742.47-2.584a1.434,1.434,0,0,0-.865-1.661,1.394,1.394,0,0,0-1.823.656c-1,1.666-1.852,3.368-.581,5.307.075.122,0,.36-.041.528-.639,1.957-2.172,3.072-3.867,4a8.129,8.129,0,0,1-4.384,1.074c-2.462-.139-4.918-.325-7.374-.517-.964-.075-1.916-.261-2.9-.331-.581-.046-.83-.29-.761-.888a37.776,37.776,0,0,1,1.7-8.332,33.793,33.793,0,0,1,5.661-10.26c1.324-1.6,2.839-3.042,4.268-4.552h0c.064-.116.122-.238.186-.36.581-.435,1.225-.859,1.817-1.312a30.1,30.1,0,0,1,9.116-4.755A35.029,35.029,0,0,1,74.41,2.54,31.83,31.83,0,0,1,88.845,6.662a33.1,33.1,0,0,1,10.736,9.29c.418.581.906,1.086,1.364,1.632.528.941,1.057,1.887,1.591,2.828h0l.528,1.039h0c.192.528.25,1.2.615,1.55a6.009,6.009,0,0,1,1.074,2.323,17.3,17.3,0,0,1,.871,2.938,20.6,20.6,0,0,1,.523,3.025c.145,1.783.2,3.577.261,5.365C106.449,37.406,106.147,37.755,105.271,37.755Zm-2.659-17.471a.169.169,0,0,1,0,.052h0Z" transform="translate(-0.021 -0.034)"/></g></g></svg>