<svg xmlns="http://www.w3.org/2000/svg" xmlns:xlink="http://www.w3.org/1999/xlink" width="78" height="78" viewBox="0 0 78 78"><defs><style>.a,.c{fill:#131313;}.a{opacity:0.29;}.b{clip-path:url(#a);}</style><clipPath id="a"><circle class="a" cx="39" cy="39" r="39" transform="translate(0.022 0.455)"/></clipPath></defs><g class="b" transform="translate(-0.022 -0.455)"><g transform="translate(16.123 16.396)"><g transform="translate(0)"><g transform="translate(0)"><path class="c" d="M44.752.591,44.745.585A2.031,2.031,0,0,0,43.326,0h0a2.015,2.015,0,0,0-1.257.441C37.244,4.293,32.4,8.268,27.681,12.257q-1.723,1.455-3.447,2.93L11.12,2.073a3.325,3.325,0,0,0-4.7,0L.195,8.3a.664.664,0,0,0,.939.939l4.35-4.35.951.951-4.35,4.35a.664.664,0,0,0,.939.939l4.35-4.35.951.951-4.35,4.35a.664.664,0,0,0,.939.939l4.35-4.35.951.951-4.35,4.35a.664.664,0,0,0,.939.939l4.35-4.35.951.951-4.35,4.35a.664.664,0,0,0,.939.939l4.35-4.35.951.951-4.35,4.35a.664.664,0,0,0,.939.939l4.35-4.35.951.951-4.35,4.35a.664.664,0,0,0,.939.939l4.35-4.35.951.951-4.35,4.35a.664.664,0,0,0,.939.939l4.35-4.35.984.984q-3.059,2.664-6.075,5.352h0c-.6.53-1.246,1.141-1.887,1.719a.668.668,0,0,0-.123.979h0a4.438,4.438,0,0,1-.3,5.931l-2,2a4.645,4.645,0,1,1,.287-6.166.666.666,0,0,0,.962.074l.01-.009.006-.005a.664.664,0,0,0-.058-1.033,5.968,5.968,0,0,0-4.533-2.079H5.972A5.975,5.975,0,1,0,7.8,37.535a5.977,5.977,0,0,0,5.686,7.809H13.5a5.975,5.975,0,0,0,4.272-10.153l1.356-1.542q3.589-3.994,7.1-8.019l1,1-4.35,4.35a.664.664,0,0,0,.939.939l4.35-4.35.951.951-4.35,4.35a.664.664,0,0,0,.939.939l4.35-4.35.95.95-4.35,4.35a.664.664,0,0,0,.939.939l4.35-4.35.95.95-4.35,4.35a.664.664,0,0,0,.939.939l4.35-4.35.951.951-4.35,4.35a.664.664,0,0,0,.939.939l4.35-4.35.95.95-4.35,4.35a.664.664,0,0,0,.939.939l4.35-4.35.95.95-4.35,4.35a.664.664,0,0,0,.939.939l4.35-4.35.95.95-4.35,4.35a.664.664,0,0,0,.939.939l4.819-4.819h0l1.408-1.408a3.321,3.321,0,0,0,0-4.7L30.142,21.1c5.093-5.941,10.03-11.9,14.76-17.82A2.015,2.015,0,0,0,44.752.591ZM6.423,3.952l.939-.939a2,2,0,0,1,2.818,0L23.223,16.055q-1.262,1.084-2.521,2.176ZM42.331,35.164a1.992,1.992,0,0,1,0,2.818l-.939.939-14.3-14.3q1.093-1.258,2.178-2.518ZM18.506,32.349a2.539,2.539,0,0,1-1.323-1.885.664.664,0,0,0-1.32.156h0a3.621,3.621,0,0,0,1.613,2.626c.047.031.094.063.143.1-.461.526-.841.968-1.277,1.45a.665.665,0,0,0,.074.962,4.648,4.648,0,1,1-7.573,3.614A4.748,4.748,0,0,1,10.278,36l1.971-1.971a5.768,5.768,0,0,0,1.684-4.086,5.679,5.679,0,0,0-.925-3.125c.52-.476.972-.9,1.5-1.366l0,0C28.91,12.6,42.726,1.567,42.986,1.418,42.807,1.6,16.892,27.5,16.773,27.635a.664.664,0,0,0,.994.882c.079-.091,25.969-25.971,26.159-26.16C43.871,2.452,33.174,16,18.506,32.349Z" transform="translate(0 0)"/></g></g><g transform="translate(2.657 28.523)"><g transform="translate(0)"><path class="c" d="M13.171,81.491a3.319,3.319,0,1,0,0,4.7A3.326,3.326,0,0,0,13.171,81.491Zm-.939,3.756a1.992,1.992,0,1,1-1.409-3.4A2,2,0,0,1,12.232,85.247Z" transform="translate(-7.501 -80.516)"/></g></g><g transform="translate(10.169 36.049)"><g transform="translate(0)"><path class="c" d="M32.029,101.763A3.323,3.323,0,0,0,32,108.408a3.375,3.375,0,0,0,1.293-.262,3.269,3.269,0,0,0,2.055-3.064A3.324,3.324,0,0,0,32.029,101.763Zm.757,5.157a1.989,1.989,0,1,1-.757-3.829,2,2,0,0,1,1.993,1.992A1.966,1.966,0,0,1,32.787,106.92Z" transform="translate(-28.705 -101.763)"/></g></g></g></g></svg>