<svg id="menu_4_" data-name="menu (4)" xmlns="http://www.w3.org/2000/svg" width="37.781" height="37.781" viewBox="0 0 37.781 37.781">
  <path id="Path_384" data-name="Path 384" d="M18.89,0a18.89,18.89,0,1,0,18.89,18.89A18.912,18.912,0,0,0,18.89,0Zm0,36.431A17.541,17.541,0,1,1,36.431,18.89,17.561,17.561,0,0,1,18.89,36.431Z" fill="#fff"/>
  <path id="Path_385" data-name="Path 385" d="M31.866,16H15.675a.675.675,0,0,0,0,1.349H31.866a.675.675,0,0,0,0-1.349Z" transform="translate(-4.88 -5.205)" fill="#fff"/>
  <path id="Path_386" data-name="Path 386" d="M31.866,27H15.675a.675.675,0,0,0,0,1.349H31.866a.675.675,0,1,0,0-1.349Z" transform="translate(-4.88 -8.784)" fill="#fff"/>
  <path id="Path_387" data-name="Path 387" d="M31.866,38H15.675a.675.675,0,0,0,0,1.349H31.866a.675.675,0,0,0,0-1.349Z" transform="translate(-4.88 -12.363)" fill="#fff"/>
</svg>
