<svg xmlns="http://www.w3.org/2000/svg" width="22.166" height="22.165" viewBox="0 0 22.166 22.165"><defs><style>.a{fill:#fff;stroke:#fff;stroke-width:0.5px;}</style></defs><g transform="translate(0.25 0.25)"><g transform="translate(0)"><path class="a" d="M18.317,3.079a10.967,10.967,0,0,0-15.238,0A10.967,10.967,0,0,0,18.586,18.587,10.967,10.967,0,0,0,18.317,3.079Zm-.246,14.992,0,0a10.236,10.236,0,1,1,3-7.235A10.236,10.236,0,0,1,18.067,18.068Z" transform="translate(0.001 0)"/></g><g transform="translate(4.315 4.381)"><path class="a" d="M113.39,111.827l-2.055-2.047a1.2,1.2,0,0,0-1.691,0l0,0-1.177,1.177a.26.26,0,0,1-.333.029,13.569,13.569,0,0,1-3.17-3.111.256.256,0,0,1,.026-.333l1.206-1.206a1.2,1.2,0,0,0,0-1.689l-2.055-2.055a1.225,1.225,0,0,0-1.693,0l-.651.651a3.656,3.656,0,0,0-.907,3.729,10.967,10.967,0,0,0,1.338,2.713,14.22,14.22,0,0,0,4.105,4.032,10.465,10.465,0,0,0,3.042,1.353,3.521,3.521,0,0,0,.848.1,3.7,3.7,0,0,0,2.607-1.1l.559-.559A1.2,1.2,0,0,0,113.39,111.827Zm-.518,1.19h0l0-.011-.559.559a2.925,2.925,0,0,1-2.76.79,9.719,9.719,0,0,1-2.822-1.265,13.517,13.517,0,0,1-3.89-3.813,10.236,10.236,0,0,1-1.25-2.53,2.925,2.925,0,0,1,.731-2.987l.651-.651a.464.464,0,0,1,.657,0h0l2.055,2.055a.464.464,0,0,1,0,.657h0l-1.206,1.206a.983.983,0,0,0-.1,1.28,14.4,14.4,0,0,0,3.345,3.283.991.991,0,0,0,1.265-.11l1.166-1.184a.464.464,0,0,1,.657,0h0l2.058,2.062A.464.464,0,0,1,112.873,113.018Z" transform="translate(-100.712 -102.253)"/></g></g></svg>