<svg xmlns="http://www.w3.org/2000/svg" width="17.323" height="20.512" viewBox="0 0 17.323 20.512"><defs><style>.a{fill:#fff;}</style></defs><g transform="translate(-2.4 -2)"><g transform="translate(2.4 2.092)"><path class="a" d="M3.39,22.353a4.48,4.48,0,0,1,.532.018,3.388,3.388,0,0,0,.44.018,4.364,4.364,0,0,0,1.7-.348,5.42,5.42,0,0,0,1.521-.88,5.513,5.513,0,0,0,1.1-1.173,2.662,2.662,0,0,0,.458-1.3c.055-1.027.11-2,.147-2.915.037-.9.055-1.8.055-2.676a20.476,20.476,0,0,0-.165-2.548q-.165-1.32-.33-2.53c-.055-.4-.128-.843-.22-1.3A7.826,7.826,0,0,0,8.248,5.4a5.741,5.741,0,0,0-.6-1.155,2.331,2.331,0,0,0-.972-.807,4.624,4.624,0,0,0-1.155-.348,6.4,6.4,0,0,0-1.192-.092h-1.3c.073,2.823.128,5.646.128,8.432,0,1.833-.018,3.648-.037,5.463s-.073,3.63-.165,5.463Zm-.862.422c-.073,0-.128-.037-.128-.092.055-1.961.092-3.886.128-5.793.018-1.888.037-3.831.037-5.793V7.009c0-1.338-.018-2.768-.073-4.253,0-.165.257-.257.77-.257.183,0,.4,0,.623.018.238.018.495.018.788.018a10.172,10.172,0,0,1,1.32.092,2.749,2.749,0,0,1,1.192.513A4.064,4.064,0,0,1,8.248,4.168a4.159,4.159,0,0,1,.6,1.21c.128.44.238.862.33,1.3.073.44.165.88.238,1.3a28.18,28.18,0,0,1,.4,2.86c.073.917.128,1.851.128,2.8A26.562,26.562,0,0,1,9.824,16.3c-.018.293-.055.715-.11,1.21-.037.513-.055.917-.055,1.247A3.03,3.03,0,0,1,9.2,20.336a4.906,4.906,0,0,1-1.247,1.3,6.312,6.312,0,0,1-1.7.9,5.46,5.46,0,0,1-1.833.33c-.238,0-.513-.018-.788-.037-.293-.018-.568-.037-.825-.037l-.275-.018Z" transform="translate(-2.4 -2.5)"/></g><path class="a" d="M56.707,4.218c-.018.88-.055,1.815-.073,2.786S56.6,8.892,56.6,9.754c0,1.98.018,3.776.055,5.353s.055,3.116.055,4.6v1.32c0,.44-.018.88-.037,1.32-.018.11-.128.165-.312.165s-.275-.073-.275-.2c.018-.953.037-1.888.055-2.823s.018-1.87.018-2.823c0-.807-.018-1.521-.037-2.163s-.055-1.228-.092-1.76-.073-1.045-.092-1.54-.037-.972-.037-1.466c0-.862.037-1.778.092-2.75.073-.972.11-1.906.147-2.786,0-.257.018-.513.037-.77s.037-.532.037-.807a1.6,1.6,0,0,0-.018-.348.456.456,0,0,1-.018-.147c.018-.092.128-.128.312-.128a.44.44,0,0,1,.348.2,28.6,28.6,0,0,0,1.008,2.823c.385.9.733,1.833,1.045,2.75C59.456,9.461,60.006,11.2,60.519,13s.972,3.538,1.393,5.243c.11.367.2.752.293,1.173a7.393,7.393,0,0,0,.458,1.356c-.018-1.723-.055-3.465-.073-5.188s-.037-3.465-.037-5.224c0-1.3.018-2.64.037-4.051s.11-2.75.238-4.051c.018-.073.11-.092.275-.092.183,0,.293.037.312.128-.055.9-.092,1.8-.11,2.676s-.037,1.76-.037,2.64c0,1.356.018,2.75.037,4.179s.037,2.8.037,4.143c0,1.1,0,2.181-.018,3.245s-.018,2.126-.018,3.208c0,.073-.055.11-.147.11a.842.842,0,0,1-.183.018c-.128,0-.238-.11-.312-.33-.11-.238-.22-.513-.348-.843s-.275-.66-.422-1.027a8.118,8.118,0,0,1-.367-1.063q-.165-.522-.275-.99c-.422-1.7-.88-3.465-1.356-5.261S58.87,9.461,58.265,7.793c-.238-.642-.477-1.3-.752-1.943-.257-.642-.532-1.3-.788-1.98l-.018.348Z" transform="translate(-43.693)"/></g></svg>